<svg width="128" height="128" viewBox="0 0 128 128" fill="none" xmlns="http://www.w3.org/2000/svg">
<rect width="128" height="128" fill="#191817"/>
<path d="M37.1129 93.6301C44.2192 100.074 53.6555 104 64 104C76.837 104 88.2757 97.9544 95.5984 88.5528L76.226 92.2446L80.9813 72.1486L66.7692 90.0063L51.6372 87.3411L58.2707 60.6849L37.1129 93.6301Z" fill="white"/>
<path d="M26.5625 78.1612C24.9065 73.7804 24 69.032 24 64.0711C24 42.0052 41.9341 24 64 24C86.0659 24 104 42.0052 104 64.0711C104 67.8389 103.477 71.484 102.5 74.9387L102.468 74.8852L92.4759 77.1726L97.5203 56.0317L84.6321 47.4122L69.1295 66.9048L75.5255 41.25L57.8049 29.4125L26.5625 78.1612Z" fill="white"/>
</svg>
